Coordinates
version=1
nRows=60
nColumns=12
inDegrees=yes

Units are S.I. units (second, meters, Newtons, ...)
Angles are in degrees

endheader
time	SC_y	SC_z	SC_x	AC_y	AC_z	AC_x	GH_y	GH_z	GH_yy	EL_x	PS_y
       0.0              -43.97          5.559          19.75          42.01         -1.567         -15.51          34.31          39.26         -48.42          119.5          149.4
  0.001554              -43.97          5.559          19.75          42.01         -1.569         -15.51          34.33          39.25          -48.4          119.5          149.4
  0.003108              -43.97          5.559          19.75          42.02         -1.572         -15.51          34.35          39.24         -48.37          119.5          149.4
  0.004662              -43.97          5.559          19.75          42.02         -1.575          -15.5          34.37          39.23         -48.34          119.4          149.4
  0.006215              -43.97          5.559          19.75          42.03         -1.578          -15.5          34.39          39.23         -48.31          119.4          149.4
  0.007769              -43.97           5.56          19.75          42.03         -1.581          -15.5          34.41          39.22         -48.27          119.4          149.4
  0.009323              -43.97           5.56          19.74          42.04         -1.584         -15.49          34.43          39.21         -48.24          119.4          149.4
   0.01088              -43.97           5.56          19.74          42.04         -1.588         -15.49          34.46           39.2          -48.2          119.4          149.4
   0.01243              -43.97           5.56          19.74          42.05         -1.591         -15.49          34.49          39.19         -48.15          119.3          149.4
   0.01398              -43.97          5.561          19.74          42.06         -1.596         -15.48          34.52          39.17         -48.11          119.3          149.4
   0.01554              -43.97          5.561          19.74          42.06           -1.6         -15.48          34.55          39.16         -48.06          119.3          149.3
   0.01709              -43.97          5.561          19.73          42.07         -1.605         -15.47          34.58          39.15         -48.01          119.2          149.3
   0.01865              -43.97          5.562          19.73          42.08          -1.61         -15.47          34.62          39.13         -47.95          119.2          149.3
    0.0202              -43.97          5.562          19.73          42.09         -1.615         -15.46          34.66          39.11         -47.89          119.2          149.3
   0.02175              -43.97          5.563          19.73           42.1         -1.621         -15.45           34.7           39.1         -47.83          119.1          149.3
   0.02331              -43.97          5.563          19.72          42.11         -1.628         -15.45          34.75          39.08         -47.76          119.1          149.3
   0.02486              -43.97          5.563          19.72          42.12         -1.635         -15.44           34.8          39.06         -47.68          119.1          149.3
   0.02642              -43.97          5.564          19.72          42.13         -1.642         -15.43          34.86          39.03          -47.6          119.0          149.3
   0.02797              -43.97          5.565          19.71          42.14         -1.651         -15.42          34.92          39.01         -47.51          118.9          149.3
   0.02952              -43.97          5.565          19.71          42.16          -1.66         -15.42          34.99          38.98         -47.41          118.9          149.3
   0.03108              -43.97          5.566           19.7          42.18          -1.67         -15.41          35.06          38.95          -47.3          118.8          149.3
   0.03263              -43.97          5.567           19.7          42.19         -1.681         -15.39          35.14          38.92         -47.17          118.8          149.3
   0.03418              -43.97          5.568          19.69          42.21         -1.693         -15.38          35.23          38.88         -47.04          118.7          149.2
   0.03574              -43.97          5.569          19.69          42.23         -1.707         -15.37          35.33          38.84         -46.89          118.6          149.2
   0.03729              -43.96           5.57          19.68          42.26         -1.722         -15.35          35.44           38.8         -46.73          118.5          149.2
   0.03885              -43.96          5.571          19.67          42.28         -1.739         -15.34          35.56          38.75         -46.54          118.4          149.2
    0.0404              -43.96          5.572          19.66          42.32         -1.758         -15.32           35.7           38.7         -46.34          118.3          149.2
   0.04195              -43.96          5.574          19.65          42.35         -1.779         -15.29          35.85          38.63         -46.11          118.1          149.1
   0.04351              -43.96          5.576          19.64          42.39         -1.803         -15.27          36.02          38.56         -45.84          118.0          149.1
   0.04506              -43.96          5.578          19.63          42.43          -1.83         -15.24          36.22          38.48         -45.55          117.8          149.1
   0.04662              -43.96           5.58          19.61          42.48         -1.861         -15.21          36.45          38.39         -45.21          117.6          149.0
   0.04817              -43.96          5.582           19.6          42.54         -1.896         -15.17          36.71          38.29         -44.82          117.4          149.0
   0.04972              -43.96          5.585          19.58           42.6         -1.938         -15.13          37.01          38.16         -44.37          117.1          149.0
   0.05128              -43.95          5.589          19.55          42.68         -1.985         -15.08          37.35          38.02         -43.85          116.8          148.9
   0.05283              -43.95          5.593          19.53          42.77         -2.041         -15.03          37.76          37.86         -43.24          116.4          148.8
   0.05439              -43.95          5.597           19.5          42.87         -2.107         -14.96          38.24          37.66         -42.51          116.0          148.8
   0.05594              -43.95          5.603          19.46           43.0         -2.185         -14.88          38.81          37.43         -41.66          115.5          148.7
   0.05749              -43.94           5.61          19.41          43.15         -2.279         -14.79          39.49          37.16         -40.63          114.9          148.6
   0.05905              -43.94          5.618          19.36          43.33         -2.393         -14.67          40.31          36.82         -39.39          114.1          148.4
    0.0606              -43.93          5.628          19.29          43.55         -2.531         -14.53          41.32          36.41         -37.87          113.2          148.3
   0.06215              -43.93           5.64          19.21          43.82         -2.702         -14.35          42.57          35.91          -36.0          112.1          148.1
   0.06371              -43.92          5.656          19.11          44.16         -2.916         -14.14          44.12          35.28         -33.67          110.7          147.8
   0.06526              -43.91          5.675          18.98          44.59         -3.184         -13.86          46.07          34.49         -30.73          109.0          147.5
   0.06682               -43.9          5.699          18.82          45.14         -3.526         -13.52          48.56          33.48         -26.99          106.8          147.1
   0.06837              -43.88          5.731          18.61          45.83         -3.964         -13.07          51.74          32.19          -22.2          103.9          146.6
   0.06992              -43.86          5.771          18.34          46.73         -4.525          -12.5          55.82          30.54         -16.06          100.3          145.9
   0.07148              -43.83          5.823           18.0          47.87         -5.242         -11.77          61.04          28.42         -8.222          95.61          145.1
   0.07303               -43.8          5.887          17.57          49.31         -6.143         -10.85          67.59          25.76           1.64          89.75          144.0
   0.07459              -43.76          5.966          17.05          51.06         -7.242         -9.734          75.58          22.52          13.66          82.61          142.7
   0.07614              -43.71          6.058          16.45          53.09         -8.515         -8.438          84.84          18.77          27.59          74.33          141.2
   0.07769              -43.66          6.157          15.79          55.29         -9.894         -7.035          94.87           14.7          42.67          65.37          139.6
   0.07925              -43.61          6.256          15.13          57.49         -11.27         -5.632          104.9          10.64          57.75           56.4          138.0
    0.0808              -43.56          6.347          14.53          59.52         -12.55         -4.335          114.2          6.882          71.68          48.13          136.5
   0.08235              -43.52          6.426           14.0          61.27         -13.64         -3.217          122.1          3.643           83.7          40.98          135.2
   0.08391              -43.48          6.491          13.58          62.71         -14.55           -2.3          128.7         0.9849          93.56          35.12          134.2
   0.08546              -43.46          6.543          13.23          63.85         -15.26          -1.57          133.9         -1.129          101.4          30.46          133.3
   0.08702              -43.43          6.583          12.97          64.75         -15.82        -0.9989          138.0         -2.784          107.5          26.82          132.7
   0.08857              -43.42          6.614          12.76          65.44         -16.26        -0.5537          141.2         -4.074          112.3          23.97          132.2
   0.09012              -43.41          6.639           12.6          65.99          -16.6        -0.2059          143.7         -5.082          116.1          21.75          131.8
   0.09168               -43.4          6.658          12.47          66.42         -16.87        0.06768          145.6         -5.874          119.0           20.0          131.4
